<svg width="16" height="93" viewBox="0 0 16 93" fill="none" xmlns="http://www.w3.org/2000/svg">
<g filter="url(#filter0_d_0_842)">
<path d="M4 85C6.20914 85 8 83.2091 8 81C8 78.7909 6.20914 77 4 77C1.79086 77 0 78.7909 0 81C0 83.2091 1.79086 85 4 85ZM4.75 1C4.75 0.585785 4.41421 0.25 4 0.25C3.58579 0.25 3.25 0.585785 3.25 1H4.75ZM4 85C6.20914 85 8 83.2091 8 81C8 78.7909 6.20914 77 4 77C1.79086 77 0 78.7909 0 81C0 83.2091 1.79086 85 4 85ZM4.75 1C4.75 0.585785 4.41421 0.25 4 0.25C3.58579 0.25 3.25 0.585785 3.25 1H4.75ZM4.75 81L4.75 1H3.25L3.25 81H4.75ZM4.75 81L4.75 1H3.25L3.25 81H4.75Z" fill="#A6A6A6"/>
</g>
<defs>
<filter id="filter0_d_0_842" x="0" y="0.25" width="16" height="92.75" filterUnits="userSpaceOnUse" color-interpolation-filters="sRGB">
<feFlood flood-opacity="0" result="BackgroundImageFix"/>
<feColorMatrix in="SourceAlpha" type="matrix" values="0 0 0 0 0 0 0 0 0 0 0 0 0 0 0 0 0 0 127 0" result="hardAlpha"/>
<feOffset dx="4" dy="4"/>
<feGaussianBlur stdDeviation="2"/>
<feComposite in2="hardAlpha" operator="out"/>
<feColorMatrix type="matrix" values="0 0 0 0 0 0 0 0 0 0 0 0 0 0 0 0 0 0 0.25 0"/>
<feBlend mode="normal" in2="BackgroundImageFix" result="effect1_dropShadow_0_842"/>
<feBlend mode="normal" in="SourceGraphic" in2="effect1_dropShadow_0_842" result="shape"/>
</filter>
</defs>
</svg>
